<svg width="44" height="30" viewBox="0 0 44 30" fill="none" xmlns="http://www.w3.org/2000/svg">
<path d="M5.90137 0V1.84748H25.7729V13.1264H39.8308L42.1544 16.0777V23.9619H38.5761C38.3646 22.7745 37.7392 21.699 36.8095 20.9242C35.8798 20.1494 34.7053 19.7247 33.492 19.7247C32.2787 19.7247 31.1042 20.1494 30.1745 20.9242C29.2448 21.699 28.6194 22.7745 28.4079 23.9619H19.211C18.9996 22.7745 18.3742 21.699 17.4445 20.9242C16.5148 20.1494 15.3403 19.7247 14.127 19.7247C12.9137 19.7247 11.7391 20.1494 10.8095 20.9242C9.87977 21.699 9.25433 22.7745 9.0429 23.9619H5.90137V25.8094H9.02896C9.25086 26.987 9.88005 28.0505 10.8076 28.8158C11.7352 29.5811 12.9028 30 14.1084 30C15.3139 30 16.4815 29.5811 17.4091 28.8158C18.3367 28.0505 18.9659 26.987 19.1878 25.8094H28.3986C28.6205 26.987 29.2497 28.0505 30.1773 28.8158C31.1049 29.5811 32.2725 30 33.478 30C34.6836 30 35.8512 29.5811 36.7788 28.8158C37.7064 28.0505 38.3356 26.987 38.5575 25.8094H43.9994V15.4634L41.1088 11.7685L36.6149 2.36016H27.6318V0.00461882L5.90137 0ZM14.0991 28.1557C13.4435 28.1557 12.8027 27.9624 12.2577 27.6004C11.7127 27.2383 11.288 26.7237 11.0374 26.1217C10.7867 25.5197 10.7214 24.8573 10.8496 24.2184C10.9778 23.5794 11.2939 22.9927 11.7578 22.5323C12.2216 22.0719 12.8125 21.7586 13.4555 21.6321C14.0986 21.5056 14.7649 21.5714 15.3703 21.8214C15.9757 22.0713 16.4929 22.4942 16.8564 23.0363C17.2199 23.5785 17.4135 24.2156 17.4126 24.8671C17.4113 25.7397 17.0617 26.5762 16.4404 27.1928C15.8192 27.8093 14.9771 28.1557 14.0991 28.1557ZM33.4734 28.1557C32.8179 28.1557 32.177 27.9624 31.632 27.6004C31.087 27.2383 30.6624 26.7237 30.4117 26.1217C30.1611 25.5197 30.0957 24.8573 30.2239 24.2184C30.3522 23.5794 30.6682 22.9927 31.1321 22.5323C31.5959 22.0719 32.1868 21.7586 32.8298 21.6321C33.4729 21.5056 34.1393 21.5714 34.7446 21.8214C35.35 22.0713 35.8672 22.4942 36.2307 23.0363C36.5942 23.5785 36.7878 24.2156 36.7869 24.8671C36.7856 25.7389 36.4366 26.5747 35.8164 27.1911C35.1961 27.8076 34.3552 28.1544 33.478 28.1557H33.4734ZM35.4392 4.20765L38.8317 11.2835H27.6318V4.20765H35.4392Z" fill="#00BA76"/>
<path d="M9.75979 16.8486H2.32422V18.6961H9.75979V16.8486Z" fill="#00BA76"/>
<path d="M13.0123 11.3066H0V13.1541H13.0123V11.3066Z" fill="#00BA76"/>
<path d="M15.3365 5.76465H2.32422V7.61213H15.3365V5.76465Z" fill="#00BA76"/>
</svg>
