<svg width="46" height="31" viewBox="0 0 46 31" fill="none" xmlns="http://www.w3.org/2000/svg">
<path d="M42.2359 0H3.76409C1.68667 0 0 1.66604 0 3.71804V27.282C0 29.334 1.68667 31 3.76409 31H42.2359C44.3133 31 46 29.334 46 27.282V3.71804C46 1.66604 44.3133 0 42.2359 0ZM3.76409 1.46572H42.2359C43.4923 1.46572 44.5161 2.47707 44.5161 3.71804V4.92482H1.48387V3.71804C1.48387 2.47707 2.50774 1.46572 3.76409 1.46572ZM44.5161 6.38566V10.5141H1.48387V6.38566H44.5161ZM42.2359 29.5294H3.76409C2.50774 29.5294 1.48387 28.518 1.48387 27.2771V11.9798H44.5161V27.2771C44.5161 28.518 43.4923 29.5294 42.2359 29.5294Z" fill="#00BA76"/>
<path d="M18.0184 17.6523H13.4431C13.0326 17.6523 12.7012 17.9799 12.7012 18.3857C12.7012 18.7915 13.0326 19.119 13.4431 19.119H18.0184C18.4289 19.119 18.7603 18.7915 18.7603 18.3857C18.7603 17.9799 18.424 17.6523 18.0184 17.6523Z" fill="#00BA76"/>
<path d="M5.08764 19.119H9.66291C10.0734 19.119 10.4048 18.7915 10.4048 18.3857C10.4048 17.9799 10.0734 17.6523 9.66291 17.6523H5.08764C4.6771 17.6523 4.3457 17.9799 4.3457 18.3857C4.3457 18.7915 4.6771 19.119 5.08764 19.119Z" fill="#00BA76"/>
<path d="M18.0171 22.5479H5.08764C4.6771 22.5479 4.3457 22.8754 4.3457 23.2812C4.3457 23.687 4.6771 24.0145 5.08764 24.0145H18.0171C18.4276 24.0145 18.759 23.687 18.759 23.2812C18.759 22.8754 18.4227 22.5479 18.0171 22.5479Z" fill="#00BA76"/>
<path d="M37.4722 16.1182C36.5868 16.1182 35.741 16.3576 34.9942 16.8071C34.272 16.3722 33.4311 16.1182 32.526 16.1182C29.8946 16.1182 27.7578 18.2337 27.7578 20.8329C27.7578 23.4321 29.8995 25.5427 32.526 25.5427C33.4311 25.5427 34.272 25.2887 34.9942 24.8539C35.7361 25.3034 36.5819 25.5427 37.4722 25.5427C40.1036 25.5427 42.2404 23.4272 42.2404 20.8329C42.2453 18.2337 40.1036 16.1182 37.4722 16.1182ZM29.2417 20.8329C29.2417 19.0447 30.7157 17.5839 32.526 17.5839C34.3363 17.5839 35.8103 19.0398 35.8103 20.8329C35.8103 22.6211 34.3363 24.077 32.526 24.077C30.7157 24.077 29.2417 22.6211 29.2417 20.8329ZM37.4722 24.077C37.032 24.077 36.6066 23.9842 36.2109 23.8181C36.8886 23.0022 37.2942 21.9615 37.2942 20.828C37.2942 19.6945 36.8886 18.6539 36.2109 17.8379C36.6066 17.6767 37.032 17.579 37.4722 17.579C39.2825 17.579 40.7565 19.0349 40.7565 20.828C40.7615 22.6211 39.2875 24.077 37.4722 24.077Z" fill="#00BA76"/>
</svg>
