<svg width="48" height="40" viewBox="0 0 48 40" fill="none" xmlns="http://www.w3.org/2000/svg">
<path d="M37.3564 25.7388H38.7627V27.11H37.3564V25.7388Z" fill="#00BA76"/>
<path d="M9.23047 25.7388H10.6367V27.11H9.23047V25.7388Z" fill="#00BA76"/>
<path d="M15.8945 26.425C15.8945 30.7851 19.5324 34.3324 24.0039 34.3324C28.4754 34.3324 32.1133 30.7851 32.1133 26.425C32.1133 22.0648 28.4754 18.5176 24.0039 18.5176C19.5324 18.5176 15.8945 22.0648 15.8945 26.425ZM30.707 26.425C30.707 30.029 27.7 32.9611 24.0039 32.9611C20.3078 32.9611 17.3008 30.029 17.3008 26.425C17.3008 22.8209 20.3078 19.8888 24.0039 19.8888C27.7 19.8888 30.707 22.8209 30.707 26.425Z" fill="#00BA76"/>
<path d="M23.2951 21.0752V21.5727C22.0431 21.8796 21.1133 22.9862 21.1133 24.301V24.6444C21.1133 25.8893 22.0645 26.9211 23.2951 27.0867V29.8171C22.8353 29.5737 22.5195 29.1061 22.5195 28.5242H21.1133C21.1133 29.8861 22.0575 30.9738 23.2951 31.2772V31.7747H24.7014V31.2772C25.9534 30.9703 26.8832 29.8636 26.8832 28.549V28.2055C26.8832 26.9606 25.932 25.9288 24.7014 25.7632V23.0328C25.1612 23.2762 25.477 23.7439 25.477 24.3257H26.8832C26.8832 22.9638 25.9389 21.8762 24.7014 21.5728V21.0753H23.2951V21.0752ZM23.2951 25.6852C22.8455 25.5421 22.5195 25.13 22.5195 24.6444V24.301C22.5195 23.7539 22.8336 23.2771 23.2951 23.0328V25.6852ZM25.477 28.2055V28.549C25.477 29.096 25.1629 29.5729 24.7014 29.8171V27.1648C25.151 27.3078 25.477 27.72 25.477 28.2055Z" fill="#00BA76"/>
<path d="M0 12.8496V39.9999H7.82719V38.6286H1.40625V14.2208H46.5938V38.6286H9.23344V39.9999H48V12.8496H0Z" fill="#00BA76"/>
<path d="M6.19462 37.2571H41.8054L41.7315 36.5061C41.5763 34.9269 42.8562 33.5548 44.4844 33.5548H45.1875V19.2941H44.4844C42.9593 19.2941 41.7188 18.0843 41.7188 16.5974C41.7188 16.4369 41.7244 16.4153 41.8054 15.5918H34.5206V16.963H40.3292C40.4985 18.8071 41.935 20.3008 43.7812 20.6076V32.2415C41.935 32.5482 40.4984 34.0419 40.3292 35.886H7.67081C7.50159 34.0419 6.06497 32.5482 4.21875 32.2415V20.6076C6.06497 20.3009 7.50159 18.8071 7.67081 16.963H33.1144V15.5918H6.19462L6.2685 16.3429C6.42366 17.9221 5.14378 19.2941 3.51562 19.2941H2.8125V33.5548H3.51562C5.04066 33.5548 6.28125 34.7646 6.28125 36.2516C6.28125 36.412 6.27562 36.4337 6.19462 37.2571Z" fill="#00BA76"/>
<path d="M34.8163 6.14057L34.4833 5.45898L26.375 10.2052L27.0988 11.3808L33.9412 7.37568C35.0661 8.88439 37.0917 9.43106 38.8247 8.76949L40.2875 11.146L41.4932 10.4403L39.337 6.93716L38.7341 7.29003C37.3246 8.11505 35.5094 7.56135 34.8163 6.14057Z" fill="#00BA76"/>
<path d="M44.7763 10.4406L38.3497 0L20.9121 10.2056L21.6358 11.3813L37.8676 1.88141L43.5705 11.1462L44.7763 10.4406Z" fill="#00BA76"/>
</svg>
