<svg width="47" height="46" viewBox="0 0 47 46" fill="none" xmlns="http://www.w3.org/2000/svg">
<path d="M39.95 22.3481V13.2377C39.95 13.2034 39.9414 13.1707 39.9375 13.1364C39.9351 13.1153 39.9343 13.0958 39.9296 13.0748C39.9116 12.9906 39.8795 12.911 39.8349 12.8378C39.8294 12.8284 39.8294 12.8175 39.8231 12.8081C39.8137 12.7941 39.7988 12.7871 39.7894 12.7738C39.7471 12.7169 39.6978 12.6662 39.6398 12.6226C39.6226 12.6085 39.6069 12.5922 39.5881 12.5797L30.0166 6.36654C30.0103 6.36187 30.0032 6.35797 29.997 6.35329L20.4027 0.12689C20.1426 -0.0422968 19.8066 -0.0422968 19.5465 0.12689L0.361117 12.5812C0.3431 12.5929 0.329 12.6093 0.311767 12.6218C0.2538 12.6662 0.203667 12.7169 0.160583 12.7738C0.1504 12.7871 0.1363 12.7941 0.1269 12.8081C0.120633 12.8175 0.120633 12.8276 0.11515 12.8378C0.0705001 12.911 0.0383834 12.9906 0.0203667 13.0756C0.0156667 13.0958 0.0148834 13.1161 0.0125334 13.1371C0.00861669 13.1707 0 13.2034 0 13.2377V32.6233C0 32.8853 0.132383 33.1301 0.3525 33.2743L19.5442 45.8706C19.57 45.8877 19.5998 45.8955 19.6272 45.9088C19.6531 45.922 19.6773 45.9345 19.7048 45.9446C19.7925 45.9774 19.8834 45.9992 19.9758 45.9992C20.0682 45.9992 20.1583 45.9774 20.2468 45.9446C20.2742 45.9345 20.2977 45.922 20.3244 45.9088C20.3518 45.8947 20.3815 45.8877 20.4074 45.8706L28.0731 40.8417C29.5873 44.0454 32.1245 46 34.8583 46H38.775C43.3105 46 47 40.6663 47 34.1101C47 28.1621 43.9724 23.194 39.95 22.3481ZM19.975 24.7596L11.8134 19.4626L29.5693 7.93835L37.73 13.2362L19.975 24.7596ZM19.975 1.71039L28.135 7.00743L10.3792 18.5316L2.21997 13.2362L19.975 1.71039ZM1.56667 28.9916L6.815 32.4354C6.94738 32.5227 7.097 32.564 7.24505 32.564C7.49963 32.564 7.74952 32.4409 7.89992 32.2132C8.13805 31.8538 8.03857 31.3704 7.67667 31.1334L1.56667 27.1235V25.6742L4.85667 27.833C4.98905 27.9204 5.13867 27.9617 5.28672 27.9617C5.5413 27.9617 5.79118 27.8385 5.94158 27.6108C6.17972 27.2514 6.08023 26.768 5.71833 26.531L1.80167 23.9612C1.72803 23.9121 1.64735 23.8872 1.56667 23.8661V14.6739L19.1917 26.1123V43.7717L1.56667 32.2038V28.9916ZM20.7583 43.7725V26.1131L38.3833 14.6739V22.2202H34.8583C30.3228 22.2202 26.6333 27.5539 26.6333 34.1101C26.6333 34.5997 26.6568 35.0863 26.6976 35.5689C26.7109 35.7271 26.736 35.8815 26.7532 36.039C26.7892 36.361 26.8276 36.6807 26.8817 36.9957C26.913 37.1781 26.9537 37.3559 26.9905 37.536C27.0485 37.819 27.1096 38.1004 27.1825 38.3757C27.231 38.5597 27.2859 38.7382 27.3407 38.9183C27.3861 39.0672 27.4222 39.2224 27.4715 39.3682L20.7583 43.7725ZM29.1486 39.397C28.5282 37.812 28.2 35.9837 28.2 34.1101C28.2 28.4139 31.1869 23.7796 34.8583 23.7796C36.1947 23.7796 37.4864 24.4041 38.5956 25.5876C40.4247 27.5243 41.5167 30.71 41.5167 34.1101C41.5167 39.8063 38.5298 44.4407 34.8583 44.4407C32.5444 44.4407 30.3565 42.5087 29.1486 39.397ZM38.9309 44.4383C38.9826 44.3955 39.0288 44.3401 39.0797 44.2957C39.2873 44.1156 39.4886 43.923 39.6837 43.7179C39.7644 43.6337 39.8435 43.5495 39.921 43.4606C40.1325 43.2205 40.3354 42.9679 40.5289 42.6997C40.5665 42.6474 40.6072 42.6014 40.644 42.5484C40.8689 42.2272 41.0772 41.8842 41.2746 41.5278C41.3302 41.4273 41.3812 41.322 41.4344 41.2191C41.5778 40.9431 41.7117 40.6593 41.8386 40.3661C41.8903 40.2461 41.942 40.1276 41.9906 40.0052C42.1355 39.6418 42.2679 39.2676 42.3854 38.8817C42.3979 38.8396 42.4144 38.8006 42.4269 38.7585C42.553 38.3312 42.6572 37.8876 42.7489 37.4369C42.7747 37.3075 42.7958 37.1765 42.8186 37.0456C42.8797 36.7009 42.9298 36.3509 42.969 35.9946C42.9846 35.855 43.0019 35.717 43.0136 35.5751C43.0551 35.0941 43.0833 34.6068 43.0833 34.1101C43.0833 30.3233 41.8324 26.7376 39.7393 24.5218C39.5153 24.2832 39.2826 24.0688 39.0453 23.8661C39.0171 23.8419 38.9904 23.8108 38.9622 23.7874C39.0108 23.7897 39.0546 23.7897 39.1095 23.7936C42.6556 24.0727 45.4333 28.6033 45.4333 34.1101C45.4333 39.726 42.5303 44.3097 38.9309 44.4383Z" fill="#00BA76"/>
<path d="M35.6406 37.9901V37.0156H36.2023C37.4587 37.0156 38.4802 36.0098 38.4802 34.774C38.4802 33.5383 37.458 32.5325 36.2023 32.5325H35.6406V31.1681H37.6969C38.1293 31.1681 38.4802 30.8188 38.4802 30.3884C38.4802 29.958 38.1293 29.6088 37.6969 29.6088H35.6406V28.642C35.6406 28.2116 35.2897 27.8623 34.8573 27.8623C34.4249 27.8623 34.074 28.2116 34.074 28.642V29.6088H33.5123C32.2558 29.6088 31.2344 30.6145 31.2344 31.8503C31.2344 33.0861 32.2566 34.0918 33.5123 34.0918H34.074V35.4562H32.0177C31.5853 35.4562 31.2344 35.8055 31.2344 36.2359C31.2344 36.6663 31.5853 37.0156 32.0177 37.0156H34.074V37.9901C34.074 38.4205 34.4249 38.7698 34.8573 38.7698C35.2897 38.7698 35.6406 38.4205 35.6406 37.9901ZM33.5123 32.5325C33.1199 32.5325 32.801 32.2261 32.801 31.8503C32.801 31.4745 33.1199 31.1681 33.5123 31.1681H34.074V32.5325H33.5123ZM35.6406 34.0918H36.2023C36.5947 34.0918 36.9135 34.3982 36.9135 34.774C36.9135 35.1498 36.5947 35.4562 36.2023 35.4562H35.6406V34.0918Z" fill="#00BA76"/>
</svg>
